<?xml version="1.0" encoding="UTF-8" standalone="no"?>
<!-- Created with Inkscape (http://www.inkscape.org/) -->

<svg
   xmlns:dc="http://purl.org/dc/elements/1.1/"
   xmlns:cc="http://creativecommons.org/ns#"
   xmlns:rdf="http://www.w3.org/1999/02/22-rdf-syntax-ns#"
   xmlns:svg="http://www.w3.org/2000/svg"
   xmlns="http://www.w3.org/2000/svg"
   xmlns:sodipodi="http://sodipodi.sourceforge.net/DTD/sodipodi-0.dtd"
   xmlns:inkscape="http://www.inkscape.org/namespaces/inkscape"
   version="1.1"
   id="svg2"
   xml:space="preserve"
   width="480"
   height="384"
   viewBox="0 0 480 384"
   sodipodi:docname="19185.eps"
   inkscape:version="0.92.3 (2405546, 2018-03-11)"><metadata
     id="metadata8"><rdf:RDF><cc:Work
         rdf:about=""><dc:format>image/svg+xml</dc:format><dc:type
           rdf:resource="http://purl.org/dc/dcmitype/StillImage" /><dc:title></dc:title></cc:Work></rdf:RDF></metadata><defs
     id="defs6" /><sodipodi:namedview
     pagecolor="#ffffff"
     bordercolor="#666666"
     borderopacity="1"
     objecttolerance="10"
     gridtolerance="10"
     guidetolerance="10"
     inkscape:pageopacity="0"
     inkscape:pageshadow="2"
     inkscape:window-width="3000"
     inkscape:window-height="1864"
     id="namedview4"
     showgrid="false"
     inkscape:zoom="1.4142136"
     inkscape:cx="-60.771057"
     inkscape:cy="97.630326"
     inkscape:window-x="0"
     inkscape:window-y="64"
     inkscape:window-maximized="1"
     inkscape:current-layer="g12" /><g
     id="g10"
     inkscape:groupmode="layer"
     inkscape:label="ink_ext_XXXXXX"
     transform="matrix(1.3333333,0,0,-1.3333333,0,384)"><g
       id="g12"
       transform="scale(0.1)"><path
         d="M 3600,0 H 0 V 2880 H 3600 V 0"
         style="fill:#f0db4f;fill-opacity:1;fill-rule:nonzero;stroke:none"
         id="path14"
         inkscape:connector-curvature="0" /><path
         d="m 1488.68,0 h 1911.83 c -51.34,62.0391 -99.03,122.43 -142.6,181.379 -80.98,109.551 -147.7,214.141 -197.54,314.062 -46.21,92.707 -77.98,181.93 -94.46,266.629 -30.03,154.7 -6.67,298.78 46.76,424.14 50.19,117.65 124.37,221.34 193.02,317.14 119.61,166.91 205.19,320.89 142.46,440.43 -65.04,123.47 -243,216.13 -412.94,306.17 -153.68,81.44 -287.99,151.54 -302.2,224.08 -11.37,58.91 78.9,111.13 164.83,155.13 78.65,40.27 145.9,83.68 127.08,119.6 -23.57,44.68 -116.97,75.3 -210.2,109.85 -148.39,7.06 -298.2,14.19 -449.44,21.39 80.53,-34.27 164.07,-68.05 166.36,-109.35 2.13,-41.24 -90.7,-78.76 -194.32,-118.88 -113.36,-43.89 -233.1,-88.97 -253.23,-154.92 -19.81,-65.63 85.04,-143.72 206.59,-225.85 134.74,-91.03 277.93,-191.89 284.46,-310.96 3.32,-62.7 -32.17,-131.88 -93.07,-200.6 -70.72,-79.75 -172.1,-160.92 -284.84,-251.46 -123.4,-99.11 -256.31,-205.65 -373.43,-329.66 -122.13,-129.4 -224.33,-278.55 -275.31,-446.371 -26.9,-88.679 -40.32,-183.73 -39.45,-283.66 0.94,-105.891 17.79,-218.488 48.01,-337.141 9.28,-36.3863 19.94,-73.4761 31.63,-111.148"
         style="fill:#323330;fill-opacity:1;fill-rule:nonzero;stroke:none"
         id="path16"
         inkscape:connector-curvature="0" /><path
         d="M 1613.81,117.25 C 1625.18,78.8984 1638.13,39.7695 1652.24,0 h 47.38 c -14.83,40.3711 -28.48,80.0898 -40.49,119.02 -36.24,117.601 -58.97,229.289 -65.6,334.531 -6.22,99.097 1.93,193.508 23.84,281.738 41.41,166.383 134.7,315.011 248.99,443.891 109.45,123.37 235.69,229.54 352.88,328.28 107.1,90.24 203.5,171.23 269.46,250.68 56.94,68.64 88.46,137.84 81.91,200.11 -12.79,119.79 -160.17,219.54 -298.82,310.46 -125.12,82.05 -233.63,159.2 -217.21,225.66 16.33,65.27 133.14,111.05 243.48,154.95 100.86,40.13 191.15,78.34 186.93,118.97 -4.49,41.79 -89.24,75.1 -171.16,109.4 -3.64,0.17 -7.29,0.35 -10.93,0.52 81.6,-34.3 166.08,-67.71 170.09,-109.39 3.75,-40.77 -87.12,-78.82 -188.6,-118.94 -111.01,-43.91 -228.5,-89.52 -245.67,-154.95 -17.19,-66.27 90.51,-143.64 214.82,-225.71 137.78,-90.95 284.22,-190.93 295.6,-310.56 5.83,-62.37 -26.58,-131.57 -84.4,-200.23 -67.03,-79.52 -164.55,-160.55 -272.92,-250.85 -118.58,-98.82 -246.31,-205.08 -357.48,-328.6 -116.05,-128.99 -211.33,-277.742 -254.88,-444.429 -23.02,-88.34 -32.35,-182.891 -27.32,-282.18 5.35,-105.391 26.77,-217.289 61.67,-335.121"
         style="fill:#f0db4f;fill-opacity:1;fill-rule:nonzero;stroke:none"
         id="path18"
         inkscape:connector-curvature="0" /><path
         d="m 2847.53,2252.43 c 165.87,-90.16 340.06,-183.53 398.2,-306.75 56.74,-120.77 -39,-274.41 -169.26,-441.8 -74.83,-96.17 -155.66,-200.14 -213.33,-318.59 -61.17,-125.76 -93.45,-270.509 -72.17,-426.708 11.64,-85.16 38.45,-175.051 79.73,-268.562 44.47,-100.641 105.78,-206.122 181.27,-316.68 C 3090.48,116.969 3132.76,59.2109 3178.2,0 h 44.58 c -46.59,59.7813 -89.94,118.059 -129.43,174.961 -76.59,110.348 -139.01,215.648 -184.56,316.148 -42.28,93.34 -70.09,183.102 -82.71,268.172 -23.04,155.899 7.45,300.509 67.05,426.189 56.17,118.29 135.66,222.2 209.25,318.31 128.12,167.29 221.82,321 163.87,441.52 -59.52,123.28 -234.47,216.49 -401.16,306.64 -150.71,81.49 -282.61,152.23 -293.38,224.24 -8.74,59.6 84.58,111.13 173.05,155.12 80.97,40.25 150.81,83.19 133.37,119.54 -21.52,44.48 -114.07,75.28 -206.11,109.8 -3.55,0.17 -7.12,0.33 -10.68,0.5 91.75,-34.51 184.08,-65.36 205.08,-109.78 17.09,-36.46 -53.39,-79.27 -134.95,-119.53 -89.1,-43.97 -183.18,-95.34 -175.11,-155.11 9.92,-71.87 141.2,-142.78 291.17,-224.29"
         style="fill:#f0db4f;fill-opacity:1;fill-rule:nonzero;stroke:none"
         id="path20"
         inkscape:connector-curvature="0" /><path
         d="m 2245.26,650.422 c 10.43,-136.262 55.74,-284.551 130.3,-442.602 -14.19,-0.531 -28.39,-1.058 -42.61,-1.582 -72.86,158.364 -116.48,306.903 -125.29,443.332 12.55,0.282 25.08,0.571 37.6,0.852 z m 222.87,628.218 c -68.28,-84.95 -129.08,-177.71 -169.73,-279.109 -11.11,-0.14 -22.22,-0.269 -33.33,-0.402 41.95,101.561 103.97,194.401 173.38,279.421 9.9,0.03 19.79,0.06 29.68,0.09 z m 375.35,412.31 c -46.6,-59.36 -105.92,-120.45 -169.71,-186.25 -8.88,0.03 -17.76,0.07 -26.65,0.11 64.68,65.85 124.82,126.97 172.19,186.39 8.05,-0.08 16.11,-0.16 24.17,-0.25 z m 72.18,292.62 c 20.66,-42.16 25.76,-88.89 14.08,-135.64 -7.4,0.11 -14.79,0.23 -22.19,0.34 12.24,46.74 7.69,93.5 -12.51,135.7 6.88,-0.13 13.76,-0.27 20.62,-0.4 z M 2659,2210.64 c 55.37,-33.91 108.84,-68.96 154.73,-107.26 -6.45,0.15 -12.91,0.3 -19.37,0.46 -45.52,38.3 -98.67,73.37 -153.71,107.3 6.12,-0.17 12.24,-0.33 18.35,-0.5 z m -283.41,181.96 c 32.46,-28.51 74.87,-56.49 122.49,-85.71 -5.81,0.18 -11.63,0.35 -17.45,0.52 -47.35,29.22 -89.49,57.21 -121.66,85.73 5.54,-0.18 11.08,-0.36 16.62,-0.54 z m -33.63,140.81 c -17.53,-19.64 -25.79,-42.88 -20.69,-65.48 -5.26,0.18 -10.53,0.36 -15.79,0.55 -4.85,22.63 3.71,45.85 21.5,65.48 4.99,-0.19 9.99,-0.37 14.98,-0.55 z m 185.31,106.88 c -36.03,-15.98 -72.43,-32.05 -105.92,-50.05 -4.73,0.18 -9.47,0.37 -14.2,0.55 33.75,18 70.39,34.06 106.65,50.05 4.49,-0.19 8.98,-0.37 13.47,-0.55 z m 152.31,88.17 c -10.77,-15.01 -31.24,-29.01 -56.35,-42.75 -4.27,0.18 -8.53,0.36 -12.8,0.54 25.3,13.73 45.96,27.72 56.92,42.74 4.08,-0.17 8.16,-0.35 12.23,-0.53 z m -49.41,82.1 c 22.9,-12.71 41.61,-26.13 50.99,-40.66 -3.9,0.17 -7.82,0.35 -11.74,0.53 -9.21,14.52 -27.81,27.94 -50.58,40.65 3.78,-0.17 7.55,-0.35 11.33,-0.52"
         style="fill:#ffffff;fill-opacity:1;fill-rule:nonzero;stroke:none"
         id="path22"
         inkscape:connector-curvature="0" /><path
         d="m 2497.01,2868.97 c 15.7,-6.2 31.48,-12.44 47.09,-18.81 -3.65,0.17 -7.3,0.34 -10.96,0.51 -15.56,6.38 -31.28,12.61 -46.94,18.81 3.6,-0.17 7.21,-0.34 10.81,-0.51"
         style="fill:#ffffff;fill-opacity:1;fill-rule:nonzero;stroke:none"
         id="path24"
         inkscape:connector-curvature="0" /></g></g></svg>